<mxfile host="app.diagrams.net" agent="Mozilla/5.0 (Windows NT 10.0; Win64; x64) AppleWebKit/537.36 (KHTML, like Gecko) Chrome/136.0.0.0 Safari/537.36" version="27.0.5">
  <diagram name="Página-1" id="GLlA6V_NZe-WCXVMi9uH">
    <mxGraphModel dx="1388" dy="1068" grid="0" gridSize="10" guides="1" tooltips="1" connect="1" arrows="1" fold="1" page="0" pageScale="1" pageWidth="827" pageHeight="1169" math="0" shadow="0">
      <root>
        <mxCell id="0" />
        <mxCell id="1" parent="0" />
        <mxCell id="Lwm3EJZnPoLz8aWj6zZj-11" value="Zona temática " style="swimlane;fontStyle=2;align=center;verticalAlign=top;childLayout=stackLayout;horizontal=1;startSize=26;horizontalStack=0;resizeParent=1;resizeLast=0;collapsible=1;marginBottom=0;rounded=0;shadow=0;strokeWidth=1;" vertex="1" parent="1">
          <mxGeometry x="110" y="80" width="160" height="230" as="geometry">
            <mxRectangle x="110" y="80" width="160" height="26" as="alternateBounds" />
          </mxGeometry>
        </mxCell>
        <mxCell id="Lwm3EJZnPoLz8aWj6zZj-12" value="nombre (String)" style="text;align=left;verticalAlign=top;spacingLeft=4;spacingRight=4;overflow=hidden;rotatable=0;points=[[0,0.5],[1,0.5]];portConstraint=eastwest;" vertex="1" parent="Lwm3EJZnPoLz8aWj6zZj-11">
          <mxGeometry y="26" width="160" height="26" as="geometry" />
        </mxCell>
        <mxCell id="Lwm3EJZnPoLz8aWj6zZj-13" value="descripcion (String)" style="text;align=left;verticalAlign=top;spacingLeft=4;spacingRight=4;overflow=hidden;rotatable=0;points=[[0,0.5],[1,0.5]];portConstraint=eastwest;rounded=0;shadow=0;html=0;" vertex="1" parent="Lwm3EJZnPoLz8aWj6zZj-11">
          <mxGeometry y="52" width="160" height="26" as="geometry" />
        </mxCell>
        <mxCell id="Lwm3EJZnPoLz8aWj6zZj-14" value="color (String)" style="text;align=left;verticalAlign=top;spacingLeft=4;spacingRight=4;overflow=hidden;rotatable=0;points=[[0,0.5],[1,0.5]];portConstraint=eastwest;rounded=0;shadow=0;html=0;" vertex="1" parent="Lwm3EJZnPoLz8aWj6zZj-11">
          <mxGeometry y="78" width="160" height="26" as="geometry" />
        </mxCell>
        <mxCell id="Lwm3EJZnPoLz8aWj6zZj-15" value="atracciones (Lista)&#xa;&#xa;restaurantes (Lista)&#xa;&#xa;tiendas (Lista)&#xa;&#xa;espectáculos (Lista)" style="text;align=left;verticalAlign=top;spacingLeft=4;spacingRight=4;overflow=hidden;rotatable=0;points=[[0,0.5],[1,0.5]];portConstraint=eastwest;" vertex="1" parent="Lwm3EJZnPoLz8aWj6zZj-11">
          <mxGeometry y="104" width="160" height="117" as="geometry" />
        </mxCell>
        <mxCell id="Lwm3EJZnPoLz8aWj6zZj-22" value="Hotel" style="swimlane;fontStyle=0;childLayout=stackLayout;horizontal=1;startSize=30;horizontalStack=0;resizeParent=1;resizeParentMax=0;resizeLast=0;collapsible=1;marginBottom=0;whiteSpace=wrap;html=1;" vertex="1" parent="1">
          <mxGeometry x="120" y="-132" width="140" height="90" as="geometry" />
        </mxCell>
        <mxCell id="Lwm3EJZnPoLz8aWj6zZj-23" value="nombre (String)" style="text;strokeColor=none;fillColor=none;align=left;verticalAlign=middle;spacingLeft=4;spacingRight=4;overflow=hidden;points=[[0,0.5],[1,0.5]];portConstraint=eastwest;rotatable=0;whiteSpace=wrap;html=1;" vertex="1" parent="Lwm3EJZnPoLz8aWj6zZj-22">
          <mxGeometry y="30" width="140" height="30" as="geometry" />
        </mxCell>
        <mxCell id="Lwm3EJZnPoLz8aWj6zZj-24" value="habitaciones (Lista)" style="text;strokeColor=none;fillColor=none;align=left;verticalAlign=middle;spacingLeft=4;spacingRight=4;overflow=hidden;points=[[0,0.5],[1,0.5]];portConstraint=eastwest;rotatable=0;whiteSpace=wrap;html=1;" vertex="1" parent="Lwm3EJZnPoLz8aWj6zZj-22">
          <mxGeometry y="60" width="140" height="30" as="geometry" />
        </mxCell>
        <mxCell id="Lwm3EJZnPoLz8aWj6zZj-26" value="Habitación" style="swimlane;fontStyle=0;childLayout=stackLayout;horizontal=1;startSize=30;horizontalStack=0;resizeParent=1;resizeParentMax=0;resizeLast=0;collapsible=1;marginBottom=0;whiteSpace=wrap;html=1;" vertex="1" parent="1">
          <mxGeometry x="120" y="-317" width="140" height="90" as="geometry" />
        </mxCell>
        <mxCell id="Lwm3EJZnPoLz8aWj6zZj-27" value="número (String)" style="text;strokeColor=none;fillColor=none;align=left;verticalAlign=middle;spacingLeft=4;spacingRight=4;overflow=hidden;points=[[0,0.5],[1,0.5]];portConstraint=eastwest;rotatable=0;whiteSpace=wrap;html=1;" vertex="1" parent="Lwm3EJZnPoLz8aWj6zZj-26">
          <mxGeometry y="30" width="140" height="30" as="geometry" />
        </mxCell>
        <mxCell id="Lwm3EJZnPoLz8aWj6zZj-28" value="Precio (Float)" style="text;strokeColor=none;fillColor=none;align=left;verticalAlign=middle;spacingLeft=4;spacingRight=4;overflow=hidden;points=[[0,0.5],[1,0.5]];portConstraint=eastwest;rotatable=0;whiteSpace=wrap;html=1;" vertex="1" parent="Lwm3EJZnPoLz8aWj6zZj-26">
          <mxGeometry y="60" width="140" height="30" as="geometry" />
        </mxCell>
        <mxCell id="Lwm3EJZnPoLz8aWj6zZj-30" value="Restaurante" style="swimlane;fontStyle=0;childLayout=stackLayout;horizontal=1;startSize=30;horizontalStack=0;resizeParent=1;resizeParentMax=0;resizeLast=0;collapsible=1;marginBottom=0;whiteSpace=wrap;html=1;" vertex="1" collapsed="1" parent="1">
          <mxGeometry x="499" y="185" width="100" height="30" as="geometry">
            <mxRectangle x="313" y="289" width="140" height="120" as="alternateBounds" />
          </mxGeometry>
        </mxCell>
        <mxCell id="Lwm3EJZnPoLz8aWj6zZj-31" value="nombre (String)" style="text;strokeColor=none;fillColor=none;align=left;verticalAlign=middle;spacingLeft=4;spacingRight=4;overflow=hidden;points=[[0,0.5],[1,0.5]];portConstraint=eastwest;rotatable=0;whiteSpace=wrap;html=1;" vertex="1" parent="Lwm3EJZnPoLz8aWj6zZj-30">
          <mxGeometry y="30" width="140" height="30" as="geometry" />
        </mxCell>
        <mxCell id="Lwm3EJZnPoLz8aWj6zZj-32" value="horario (String)" style="text;strokeColor=none;fillColor=none;align=left;verticalAlign=middle;spacingLeft=4;spacingRight=4;overflow=hidden;points=[[0,0.5],[1,0.5]];portConstraint=eastwest;rotatable=0;whiteSpace=wrap;html=1;" vertex="1" parent="Lwm3EJZnPoLz8aWj6zZj-30">
          <mxGeometry y="60" width="140" height="30" as="geometry" />
        </mxCell>
        <mxCell id="Lwm3EJZnPoLz8aWj6zZj-33" value="precio_medio (Float)" style="text;strokeColor=none;fillColor=none;align=left;verticalAlign=middle;spacingLeft=4;spacingRight=4;overflow=hidden;points=[[0,0.5],[1,0.5]];portConstraint=eastwest;rotatable=0;whiteSpace=wrap;html=1;" vertex="1" parent="Lwm3EJZnPoLz8aWj6zZj-30">
          <mxGeometry y="90" width="140" height="30" as="geometry" />
        </mxCell>
        <mxCell id="Lwm3EJZnPoLz8aWj6zZj-34" value="Tienda" style="swimlane;fontStyle=0;childLayout=stackLayout;horizontal=1;startSize=30;horizontalStack=0;resizeParent=1;resizeParentMax=0;resizeLast=0;collapsible=1;marginBottom=0;whiteSpace=wrap;html=1;" vertex="1" collapsed="1" parent="1">
          <mxGeometry x="499" y="157" width="100" height="30" as="geometry">
            <mxRectangle x="123" y="364" width="140" height="90" as="alternateBounds" />
          </mxGeometry>
        </mxCell>
        <mxCell id="Lwm3EJZnPoLz8aWj6zZj-35" value="nombre (String)" style="text;strokeColor=none;fillColor=none;align=left;verticalAlign=middle;spacingLeft=4;spacingRight=4;overflow=hidden;points=[[0,0.5],[1,0.5]];portConstraint=eastwest;rotatable=0;whiteSpace=wrap;html=1;" vertex="1" parent="Lwm3EJZnPoLz8aWj6zZj-34">
          <mxGeometry y="30" width="140" height="30" as="geometry" />
        </mxCell>
        <mxCell id="Lwm3EJZnPoLz8aWj6zZj-36" value="horario (String)" style="text;strokeColor=none;fillColor=none;align=left;verticalAlign=middle;spacingLeft=4;spacingRight=4;overflow=hidden;points=[[0,0.5],[1,0.5]];portConstraint=eastwest;rotatable=0;whiteSpace=wrap;html=1;" vertex="1" parent="Lwm3EJZnPoLz8aWj6zZj-34">
          <mxGeometry y="60" width="140" height="30" as="geometry" />
        </mxCell>
        <mxCell id="Lwm3EJZnPoLz8aWj6zZj-38" value="Atracción" style="swimlane;fontStyle=0;childLayout=stackLayout;horizontal=1;startSize=30;horizontalStack=0;resizeParent=1;resizeParentMax=0;resizeLast=0;collapsible=1;marginBottom=0;whiteSpace=wrap;html=1;" vertex="1" collapsed="1" parent="1">
          <mxGeometry x="499" y="215" width="99" height="30" as="geometry">
            <mxRectangle x="490" y="237" width="140" height="144" as="alternateBounds" />
          </mxGeometry>
        </mxCell>
        <mxCell id="Lwm3EJZnPoLz8aWj6zZj-39" value="nombre (String)" style="text;strokeColor=none;fillColor=none;align=left;verticalAlign=middle;spacingLeft=4;spacingRight=4;overflow=hidden;points=[[0,0.5],[1,0.5]];portConstraint=eastwest;rotatable=0;whiteSpace=wrap;html=1;" vertex="1" parent="Lwm3EJZnPoLz8aWj6zZj-38">
          <mxGeometry y="30" width="140" height="30" as="geometry" />
        </mxCell>
        <mxCell id="Lwm3EJZnPoLz8aWj6zZj-40" value="altura_min (Float)" style="text;strokeColor=none;fillColor=none;align=left;verticalAlign=middle;spacingLeft=4;spacingRight=4;overflow=hidden;points=[[0,0.5],[1,0.5]];portConstraint=eastwest;rotatable=0;whiteSpace=wrap;html=1;" vertex="1" parent="Lwm3EJZnPoLz8aWj6zZj-38">
          <mxGeometry y="60" width="140" height="30" as="geometry" />
        </mxCell>
        <mxCell id="Lwm3EJZnPoLz8aWj6zZj-41" value="&lt;div&gt;capacidad (Int)&lt;/div&gt;&lt;div&gt;&lt;br&gt;&lt;/div&gt;&lt;div&gt;duración (Int)&lt;/div&gt;&lt;div&gt;&lt;br&gt;&lt;/div&gt;&lt;div&gt;&lt;br&gt;&lt;/div&gt;" style="text;strokeColor=none;fillColor=none;align=left;verticalAlign=middle;spacingLeft=4;spacingRight=4;overflow=hidden;points=[[0,0.5],[1,0.5]];portConstraint=eastwest;rotatable=0;whiteSpace=wrap;html=1;" vertex="1" parent="Lwm3EJZnPoLz8aWj6zZj-38">
          <mxGeometry y="90" width="140" height="54" as="geometry" />
        </mxCell>
        <mxCell id="Lwm3EJZnPoLz8aWj6zZj-42" value="Espectáculo" style="swimlane;fontStyle=0;childLayout=stackLayout;horizontal=1;startSize=30;horizontalStack=0;resizeParent=1;resizeParentMax=0;resizeLast=0;collapsible=1;marginBottom=0;whiteSpace=wrap;html=1;" vertex="1" collapsed="1" parent="1">
          <mxGeometry x="499" y="127" width="100" height="30" as="geometry">
            <mxRectangle x="339" y="424" width="140" height="120" as="alternateBounds" />
          </mxGeometry>
        </mxCell>
        <mxCell id="Lwm3EJZnPoLz8aWj6zZj-43" value="nombre (String)" style="text;strokeColor=none;fillColor=none;align=left;verticalAlign=middle;spacingLeft=4;spacingRight=4;overflow=hidden;points=[[0,0.5],[1,0.5]];portConstraint=eastwest;rotatable=0;whiteSpace=wrap;html=1;" vertex="1" parent="Lwm3EJZnPoLz8aWj6zZj-42">
          <mxGeometry y="30" width="140" height="30" as="geometry" />
        </mxCell>
        <mxCell id="Lwm3EJZnPoLz8aWj6zZj-44" value="tipo (String)" style="text;strokeColor=none;fillColor=none;align=left;verticalAlign=middle;spacingLeft=4;spacingRight=4;overflow=hidden;points=[[0,0.5],[1,0.5]];portConstraint=eastwest;rotatable=0;whiteSpace=wrap;html=1;" vertex="1" parent="Lwm3EJZnPoLz8aWj6zZj-42">
          <mxGeometry y="60" width="140" height="30" as="geometry" />
        </mxCell>
        <mxCell id="Lwm3EJZnPoLz8aWj6zZj-45" value="duración (Int)" style="text;strokeColor=none;fillColor=none;align=left;verticalAlign=middle;spacingLeft=4;spacingRight=4;overflow=hidden;points=[[0,0.5],[1,0.5]];portConstraint=eastwest;rotatable=0;whiteSpace=wrap;html=1;" vertex="1" parent="Lwm3EJZnPoLz8aWj6zZj-42">
          <mxGeometry y="90" width="140" height="30" as="geometry" />
        </mxCell>
        <mxCell id="Lwm3EJZnPoLz8aWj6zZj-46" value="Entrada" style="swimlane;fontStyle=0;childLayout=stackLayout;horizontal=1;startSize=30;horizontalStack=0;resizeParent=1;resizeParentMax=0;resizeLast=0;collapsible=1;marginBottom=0;whiteSpace=wrap;html=1;" vertex="1" collapsed="1" parent="1">
          <mxGeometry x="516" y="-289" width="77" height="30" as="geometry">
            <mxRectangle x="469" y="-279" width="140" height="60" as="alternateBounds" />
          </mxGeometry>
        </mxCell>
        <mxCell id="Lwm3EJZnPoLz8aWj6zZj-47" value="Fecha (Date)" style="text;strokeColor=none;fillColor=none;align=left;verticalAlign=middle;spacingLeft=4;spacingRight=4;overflow=hidden;points=[[0,0.5],[1,0.5]];portConstraint=eastwest;rotatable=0;whiteSpace=wrap;html=1;" vertex="1" parent="Lwm3EJZnPoLz8aWj6zZj-46">
          <mxGeometry y="30" width="140" height="30" as="geometry" />
        </mxCell>
        <mxCell id="Lwm3EJZnPoLz8aWj6zZj-50" value="Cliente" style="swimlane;fontStyle=0;childLayout=stackLayout;horizontal=1;startSize=30;horizontalStack=0;resizeParent=1;resizeParentMax=0;resizeLast=0;collapsible=1;marginBottom=0;whiteSpace=wrap;html=1;" vertex="1" collapsed="1" parent="1">
          <mxGeometry x="518.5" y="-71" width="72" height="30" as="geometry">
            <mxRectangle x="439" y="-57.5" width="140" height="153" as="alternateBounds" />
          </mxGeometry>
        </mxCell>
        <mxCell id="Lwm3EJZnPoLz8aWj6zZj-51" value="nombre (String)" style="text;strokeColor=none;fillColor=none;align=left;verticalAlign=middle;spacingLeft=4;spacingRight=4;overflow=hidden;points=[[0,0.5],[1,0.5]];portConstraint=eastwest;rotatable=0;whiteSpace=wrap;html=1;" vertex="1" parent="Lwm3EJZnPoLz8aWj6zZj-50">
          <mxGeometry y="30" width="140" height="30" as="geometry" />
        </mxCell>
        <mxCell id="Lwm3EJZnPoLz8aWj6zZj-52" value="apellidos (String)" style="text;strokeColor=none;fillColor=none;align=left;verticalAlign=middle;spacingLeft=4;spacingRight=4;overflow=hidden;points=[[0,0.5],[1,0.5]];portConstraint=eastwest;rotatable=0;whiteSpace=wrap;html=1;" vertex="1" parent="Lwm3EJZnPoLz8aWj6zZj-50">
          <mxGeometry y="60" width="140" height="30" as="geometry" />
        </mxCell>
        <mxCell id="Lwm3EJZnPoLz8aWj6zZj-53" value="nif (String)&lt;div&gt;&lt;br&gt;&lt;/div&gt;&lt;div&gt;contacto&amp;nbsp;&lt;span style=&quot;background-color: transparent; color: light-dark(rgb(0, 0, 0), rgb(255, 255, 255));&quot;&gt;(String)&lt;/span&gt;&lt;/div&gt;" style="text;strokeColor=none;fillColor=none;align=left;verticalAlign=middle;spacingLeft=4;spacingRight=4;overflow=hidden;points=[[0,0.5],[1,0.5]];portConstraint=eastwest;rotatable=0;whiteSpace=wrap;html=1;" vertex="1" parent="Lwm3EJZnPoLz8aWj6zZj-50">
          <mxGeometry y="90" width="140" height="63" as="geometry" />
        </mxCell>
        <mxCell id="Lwm3EJZnPoLz8aWj6zZj-54" value="Compra" style="swimlane;fontStyle=0;childLayout=stackLayout;horizontal=1;startSize=30;horizontalStack=0;resizeParent=1;resizeParentMax=0;resizeLast=0;collapsible=1;marginBottom=0;whiteSpace=wrap;html=1;" vertex="1" collapsed="1" parent="1">
          <mxGeometry x="515" y="-191" width="78" height="30" as="geometry">
            <mxRectangle x="57" y="681" width="140" height="120" as="alternateBounds" />
          </mxGeometry>
        </mxCell>
        <mxCell id="Lwm3EJZnPoLz8aWj6zZj-55" value="fecha (Date)" style="text;strokeColor=none;fillColor=none;align=left;verticalAlign=middle;spacingLeft=4;spacingRight=4;overflow=hidden;points=[[0,0.5],[1,0.5]];portConstraint=eastwest;rotatable=0;whiteSpace=wrap;html=1;" vertex="1" parent="Lwm3EJZnPoLz8aWj6zZj-54">
          <mxGeometry y="30" width="140" height="30" as="geometry" />
        </mxCell>
        <mxCell id="Lwm3EJZnPoLz8aWj6zZj-56" value="entradas (List)" style="text;strokeColor=none;fillColor=none;align=left;verticalAlign=middle;spacingLeft=4;spacingRight=4;overflow=hidden;points=[[0,0.5],[1,0.5]];portConstraint=eastwest;rotatable=0;whiteSpace=wrap;html=1;" vertex="1" parent="Lwm3EJZnPoLz8aWj6zZj-54">
          <mxGeometry y="60" width="140" height="30" as="geometry" />
        </mxCell>
        <mxCell id="Lwm3EJZnPoLz8aWj6zZj-57" value="reservas (List)" style="text;strokeColor=none;fillColor=none;align=left;verticalAlign=middle;spacingLeft=4;spacingRight=4;overflow=hidden;points=[[0,0.5],[1,0.5]];portConstraint=eastwest;rotatable=0;whiteSpace=wrap;html=1;" vertex="1" parent="Lwm3EJZnPoLz8aWj6zZj-54">
          <mxGeometry y="90" width="140" height="30" as="geometry" />
        </mxCell>
        <mxCell id="Lwm3EJZnPoLz8aWj6zZj-58" value="Reserva" style="swimlane;fontStyle=0;childLayout=stackLayout;horizontal=1;startSize=30;horizontalStack=0;resizeParent=1;resizeParentMax=0;resizeLast=0;collapsible=1;marginBottom=0;whiteSpace=wrap;html=1;" vertex="1" collapsed="1" parent="1">
          <mxGeometry x="318" y="-289" width="80" height="30" as="geometry">
            <mxRectangle x="-17" y="857" width="140" height="90" as="alternateBounds" />
          </mxGeometry>
        </mxCell>
        <mxCell id="Lwm3EJZnPoLz8aWj6zZj-59" value="fecha_entrada (Date)" style="text;strokeColor=none;fillColor=none;align=left;verticalAlign=middle;spacingLeft=4;spacingRight=4;overflow=hidden;points=[[0,0.5],[1,0.5]];portConstraint=eastwest;rotatable=0;whiteSpace=wrap;html=1;" vertex="1" parent="Lwm3EJZnPoLz8aWj6zZj-58">
          <mxGeometry y="30" width="140" height="30" as="geometry" />
        </mxCell>
        <mxCell id="Lwm3EJZnPoLz8aWj6zZj-60" value="fecha_salida (Date)" style="text;strokeColor=none;fillColor=none;align=left;verticalAlign=middle;spacingLeft=4;spacingRight=4;overflow=hidden;points=[[0,0.5],[1,0.5]];portConstraint=eastwest;rotatable=0;whiteSpace=wrap;html=1;" vertex="1" parent="Lwm3EJZnPoLz8aWj6zZj-58">
          <mxGeometry y="60" width="140" height="30" as="geometry" />
        </mxCell>
        <mxCell id="Lwm3EJZnPoLz8aWj6zZj-62" value="" style="rhombus;whiteSpace=wrap;html=1;" vertex="1" parent="1">
          <mxGeometry x="270" y="182" width="30" height="30" as="geometry" />
        </mxCell>
        <mxCell id="Lwm3EJZnPoLz8aWj6zZj-63" value="" style="endArrow=classic;html=1;rounded=0;fontSize=12;startSize=8;endSize=8;curved=1;entryX=1;entryY=0.5;entryDx=0;entryDy=0;exitX=0;exitY=0.5;exitDx=0;exitDy=0;" edge="1" parent="1" source="Lwm3EJZnPoLz8aWj6zZj-40" target="Lwm3EJZnPoLz8aWj6zZj-62">
          <mxGeometry width="50" height="50" relative="1" as="geometry">
            <mxPoint x="431" y="197" as="sourcePoint" />
            <mxPoint x="477" y="157" as="targetPoint" />
          </mxGeometry>
        </mxCell>
        <mxCell id="Lwm3EJZnPoLz8aWj6zZj-64" value="" style="endArrow=none;html=1;rounded=0;fontSize=12;startSize=8;endSize=8;curved=1;entryX=0.5;entryY=1.093;entryDx=0;entryDy=0;entryPerimeter=0;exitX=0.5;exitY=0;exitDx=0;exitDy=0;" edge="1" parent="1" source="Lwm3EJZnPoLz8aWj6zZj-11" target="Lwm3EJZnPoLz8aWj6zZj-24">
          <mxGeometry width="50" height="50" relative="1" as="geometry">
            <mxPoint x="208" y="31" as="sourcePoint" />
            <mxPoint x="258" y="-19" as="targetPoint" />
          </mxGeometry>
        </mxCell>
        <mxCell id="Lwm3EJZnPoLz8aWj6zZj-65" value="1.1" style="text;html=1;align=center;verticalAlign=middle;whiteSpace=wrap;rounded=0;" vertex="1" parent="1">
          <mxGeometry x="126" y="4" width="60" height="30" as="geometry" />
        </mxCell>
        <mxCell id="Lwm3EJZnPoLz8aWj6zZj-66" value="" style="endArrow=none;html=1;rounded=0;fontSize=12;startSize=8;endSize=8;curved=1;entryX=0.501;entryY=1.047;entryDx=0;entryDy=0;entryPerimeter=0;exitX=0.5;exitY=0;exitDx=0;exitDy=0;" edge="1" parent="1" source="Lwm3EJZnPoLz8aWj6zZj-22" target="Lwm3EJZnPoLz8aWj6zZj-28">
          <mxGeometry width="50" height="50" relative="1" as="geometry">
            <mxPoint x="186" y="-146" as="sourcePoint" />
            <mxPoint x="236" y="-196" as="targetPoint" />
          </mxGeometry>
        </mxCell>
        <mxCell id="Lwm3EJZnPoLz8aWj6zZj-67" value="1.n" style="text;html=1;align=center;verticalAlign=middle;whiteSpace=wrap;rounded=0;" vertex="1" parent="1">
          <mxGeometry x="126" y="-224" width="60" height="30" as="geometry" />
        </mxCell>
        <mxCell id="Lwm3EJZnPoLz8aWj6zZj-68" value="1.1" style="text;html=1;align=center;verticalAlign=middle;whiteSpace=wrap;rounded=0;" vertex="1" parent="1">
          <mxGeometry x="126" y="-162" width="60" height="30" as="geometry" />
        </mxCell>
        <mxCell id="Lwm3EJZnPoLz8aWj6zZj-69" value="0.n" style="text;html=1;align=center;verticalAlign=middle;whiteSpace=wrap;rounded=0;" vertex="1" parent="1">
          <mxGeometry x="379" y="114" width="60" height="30" as="geometry" />
        </mxCell>
        <mxCell id="Lwm3EJZnPoLz8aWj6zZj-70" value="1.1" style="text;html=1;align=center;verticalAlign=middle;resizable=0;points=[];autosize=1;strokeColor=none;fillColor=none;fontSize=16;" vertex="1" parent="1">
          <mxGeometry x="270" y="151" width="40" height="31" as="geometry" />
        </mxCell>
        <mxCell id="Lwm3EJZnPoLz8aWj6zZj-71" value="" style="endArrow=classic;html=1;rounded=0;fontSize=12;startSize=8;endSize=8;curved=1;entryX=1;entryY=0.5;entryDx=0;entryDy=0;exitX=0;exitY=0.5;exitDx=0;exitDy=0;" edge="1" parent="1" source="Lwm3EJZnPoLz8aWj6zZj-30" target="Lwm3EJZnPoLz8aWj6zZj-62">
          <mxGeometry width="50" height="50" relative="1" as="geometry">
            <mxPoint x="495" y="204" as="sourcePoint" />
            <mxPoint x="535" y="124" as="targetPoint" />
          </mxGeometry>
        </mxCell>
        <mxCell id="Lwm3EJZnPoLz8aWj6zZj-72" value="" style="endArrow=classic;html=1;rounded=0;fontSize=12;startSize=8;endSize=8;curved=1;entryX=1;entryY=0.5;entryDx=0;entryDy=0;exitX=0;exitY=0.5;exitDx=0;exitDy=0;" edge="1" parent="1" source="Lwm3EJZnPoLz8aWj6zZj-34" target="Lwm3EJZnPoLz8aWj6zZj-62">
          <mxGeometry width="50" height="50" relative="1" as="geometry">
            <mxPoint x="382" y="325" as="sourcePoint" />
            <mxPoint x="432" y="275" as="targetPoint" />
          </mxGeometry>
        </mxCell>
        <mxCell id="Lwm3EJZnPoLz8aWj6zZj-73" value="" style="endArrow=classic;html=1;rounded=0;fontSize=12;startSize=8;endSize=8;curved=1;entryX=1;entryY=0.5;entryDx=0;entryDy=0;exitX=0;exitY=0.5;exitDx=0;exitDy=0;" edge="1" parent="1" source="Lwm3EJZnPoLz8aWj6zZj-42" target="Lwm3EJZnPoLz8aWj6zZj-62">
          <mxGeometry width="50" height="50" relative="1" as="geometry">
            <mxPoint x="330" y="375" as="sourcePoint" />
            <mxPoint x="380" y="325" as="targetPoint" />
          </mxGeometry>
        </mxCell>
        <mxCell id="Lwm3EJZnPoLz8aWj6zZj-74" value="" style="endArrow=classic;html=1;rounded=0;fontSize=12;startSize=8;endSize=8;curved=1;exitX=0.5;exitY=0;exitDx=0;exitDy=0;entryX=0.5;entryY=1;entryDx=0;entryDy=0;" edge="1" parent="1" source="Lwm3EJZnPoLz8aWj6zZj-50" target="Lwm3EJZnPoLz8aWj6zZj-54">
          <mxGeometry width="50" height="50" relative="1" as="geometry">
            <mxPoint x="568" y="-258" as="sourcePoint" />
            <mxPoint x="620" y="-278" as="targetPoint" />
          </mxGeometry>
        </mxCell>
        <mxCell id="Lwm3EJZnPoLz8aWj6zZj-75" value="0.n" style="text;html=1;align=center;verticalAlign=middle;whiteSpace=wrap;rounded=0;" vertex="1" parent="1">
          <mxGeometry x="554" y="-161" width="60" height="30" as="geometry" />
        </mxCell>
        <mxCell id="Lwm3EJZnPoLz8aWj6zZj-76" value="1.1" style="text;html=1;align=center;verticalAlign=middle;whiteSpace=wrap;rounded=0;" vertex="1" parent="1">
          <mxGeometry x="549" y="-116" width="60" height="30" as="geometry" />
        </mxCell>
        <mxCell id="Lwm3EJZnPoLz8aWj6zZj-77" value="" style="endArrow=none;html=1;rounded=0;fontSize=12;startSize=8;endSize=8;curved=1;entryX=0.5;entryY=1;entryDx=0;entryDy=0;exitX=0.5;exitY=0;exitDx=0;exitDy=0;" edge="1" parent="1" source="Lwm3EJZnPoLz8aWj6zZj-54" target="Lwm3EJZnPoLz8aWj6zZj-46">
          <mxGeometry width="50" height="50" relative="1" as="geometry">
            <mxPoint x="500" y="-121" as="sourcePoint" />
            <mxPoint x="550" y="-171" as="targetPoint" />
          </mxGeometry>
        </mxCell>
        <mxCell id="Lwm3EJZnPoLz8aWj6zZj-78" value="1.1" style="text;html=1;align=center;verticalAlign=middle;whiteSpace=wrap;rounded=0;" vertex="1" parent="1">
          <mxGeometry x="566" y="-242" width="60" height="30" as="geometry" />
        </mxCell>
        <mxCell id="Lwm3EJZnPoLz8aWj6zZj-80" value="" style="endArrow=none;html=1;rounded=0;fontSize=12;startSize=8;endSize=8;curved=1;entryX=0;entryY=0.5;entryDx=0;entryDy=0;exitX=1;exitY=0.5;exitDx=0;exitDy=0;" edge="1" parent="1" source="Lwm3EJZnPoLz8aWj6zZj-27" target="Lwm3EJZnPoLz8aWj6zZj-58">
          <mxGeometry width="50" height="50" relative="1" as="geometry">
            <mxPoint x="378" y="-171" as="sourcePoint" />
            <mxPoint x="428" y="-221" as="targetPoint" />
          </mxGeometry>
        </mxCell>
        <mxCell id="Lwm3EJZnPoLz8aWj6zZj-81" value="" style="endArrow=classic;html=1;rounded=0;fontSize=12;startSize=8;endSize=8;curved=1;entryX=1;entryY=0.5;entryDx=0;entryDy=0;exitX=0;exitY=0.5;exitDx=0;exitDy=0;" edge="1" parent="1" source="Lwm3EJZnPoLz8aWj6zZj-46" target="Lwm3EJZnPoLz8aWj6zZj-58">
          <mxGeometry width="50" height="50" relative="1" as="geometry">
            <mxPoint x="347" y="-132" as="sourcePoint" />
            <mxPoint x="397" y="-182" as="targetPoint" />
          </mxGeometry>
        </mxCell>
        <mxCell id="Lwm3EJZnPoLz8aWj6zZj-82" value="1.1" style="text;html=1;align=center;verticalAlign=middle;whiteSpace=wrap;rounded=0;" vertex="1" parent="1">
          <mxGeometry x="464" y="-308" width="60" height="30" as="geometry" />
        </mxCell>
        <mxCell id="Lwm3EJZnPoLz8aWj6zZj-83" value="0.n" style="text;html=1;align=center;verticalAlign=middle;whiteSpace=wrap;rounded=0;" vertex="1" parent="1">
          <mxGeometry x="393" y="-308" width="60" height="30" as="geometry" />
        </mxCell>
        <mxCell id="Lwm3EJZnPoLz8aWj6zZj-84" value="1.1" style="text;html=1;align=center;verticalAlign=middle;whiteSpace=wrap;rounded=0;" vertex="1" parent="1">
          <mxGeometry x="260" y="-311" width="60" height="30" as="geometry" />
        </mxCell>
      </root>
    </mxGraphModel>
  </diagram>
</mxfile>
